<svg width="1080" height="1080" viewBox="0 0 1080 1080" fill="none" xmlns="http://www.w3.org/2000/svg">
    <path d="M539.672 366L442.172 715H359.672L294.172 466.5L225.672 715L143.672 715.5L49.6719 366H124.672L186.172 637L257.172 366H335.172L402.172 635.5L464.172 366H539.672ZM756.379 434C777.379 434 796.046 438.667 812.379 448C828.712 457 841.379 470.5 850.379 488.5C859.712 506.167 864.379 527.5 864.379 552.5V715H794.379V562C794.379 540 788.879 523.167 777.879 511.5C766.879 499.5 751.879 493.5 732.879 493.5C713.546 493.5 698.212 499.5 686.879 511.5C675.879 523.167 670.379 540 670.379 562V715H600.379V345H670.379V472.5C679.379 460.5 691.379 451.167 706.379 444.5C721.379 437.5 738.046 434 756.379 434ZM976.945 718.5C964.279 718.5 953.779 714.667 945.445 707C937.445 699 933.445 689.167 933.445 677.5C933.445 665.833 937.445 656.167 945.445 648.5C953.779 640.5 964.279 636.5 976.945 636.5C989.279 636.5 999.445 640.5 1007.45 648.5C1015.45 656.167 1019.45 665.833 1019.45 677.5C1019.45 689.167 1015.45 699 1007.45 707C999.445 714.667 989.279 718.5 976.945 718.5Z" fill="currentColor"/>
</svg>
